# xmcd
#
# Track frame offsets:
#	150
#	10695
#	26190
#	37240
#	63625
#	76755
#	90560
#	101192
#	115207
#	125180
#	143525
#	157590
#	171285
#	191597
#	209387
#	224200
#	237515
#
# Disc length: 3328 seconds
#
# Revision: 2
# Processed by: cddbd v1.5.2PL0 Copyright (c) Steve Scherf et al.
# Submitted via: audiograbber 1.83.01
#
DISCID=f60cfe11
DTITLE=Louis Armstrong - Classic Louis Armstrong
DYEAR=1999
DGENRE=Jazz
TTITLE0=What a wonderful World
TTITLE1=La vie en Rose
TTITLE2=Hello, Dolly
TTITLE3=On the sunny Side of the Street
TTITLE4=Blueberry Hill
TTITLE5=C 'est si Bon
TTITLE6=The dummy Song
TTITLE7=Chloe
TTITLE8=I still get Jealous
TTITLE9=When you 're smiling (The whole World smiles with you) 
TTITLE10=Kiss of Fire
TTITLE11=Sittin'  in the Sun
TTITLE12=A Kiss to build a Dream on
TTITLE13=High Society
TTITLE14=When it 's sleepy Time down South
TTITLE15=Takes Two to Tango
TTITLE16=La Cucaracha 
EXTD=The Universal Master`s Collection
EXTT0=
EXTT1=
EXTT2=
EXTT3=
EXTT4=
EXTT5=
EXTT6=
EXTT7=
EXTT8=
EXTT9=
EXTT10=
EXTT11=
EXTT12=
EXTT13=
EXTT14=
EXTT15=
EXTT16=
PLAYORDER=
